<svg width="17" height="16" viewBox="0 0 17 16" fill="none" xmlns="http://www.w3.org/2000/svg">
<path d="M9.58992 15.2567L15.7561 9.09048C16.0441 8.80063 16.2058 8.40861 16.2058 8C16.2058 7.59139 16.0441 7.19937 15.7561 6.90952L9.58992 0.743424C9.29995 0.458662 8.90926 0.299933 8.50285 0.301774C8.09644 0.303614 7.7072 0.465875 7.41983 0.753251C7.13245 1.04063 6.97019 1.42987 6.96835 1.83627C6.96651 2.24268 7.12524 2.63337 7.41 2.92334L10.945 6.45838H2.33329C1.92442 6.45838 1.53229 6.62081 1.24317 6.90993C0.954051 7.19905 0.791626 7.59117 0.791626 8.00005C0.791626 8.40892 0.954051 8.80105 1.24317 9.09017C1.53229 9.37929 1.92442 9.54172 2.33329 9.54172H10.945L7.40991 13.0768C7.12383 13.3665 6.96399 13.7576 6.96528 14.1647C6.96657 14.5719 7.12889 14.962 7.41679 15.2499C7.7047 15.5378 8.09481 15.7001 8.50195 15.7013C8.9091 15.7026 9.30022 15.5428 9.58992 15.2567Z" fill="#ED017F"/>
</svg>
